<svg width="910" height="200" viewBox="0 0 910 200" fill="none" xmlns="http://www.w3.org/2000/svg">
<path d="M44.9961 22.7539L74.5859 18.8477L60.4258 85.6445C66.7409 85.1888 72.763 82.2591 78.4922 76.8555C83.7005 71.9727 87.8346 65.7878 90.8945 58.3008C93.8893 51.1393 95.3867 43.8477 95.3867 36.4258C95.3867 28.6133 93.4661 22.2005 89.625 17.1875C87.5417 14.6484 84.9049 12.6953 81.7148 11.3281C78.5247 9.89583 74.8138 9.17969 70.582 9.17969C62.5091 9.17969 55.25 10.2865 48.8047 12.5C42.4245 14.7135 36.9883 17.9036 32.4961 22.0703C28.0039 26.237 24.5859 31.3477 22.2422 37.4023C19.9635 43.457 18.8242 50.2604 18.8242 57.8125C18.8242 61.9792 19.2799 65.2995 20.1914 67.7734C20.4518 68.6198 20.7773 69.3685 21.168 70.0195C21.4284 70.4753 21.5586 70.931 21.5586 71.3867C14.332 71.3867 9.05859 69.9544 5.73828 67.0898C2.02734 63.9648 0.171875 58.9193 0.171875 51.9531C0.171875 47.5911 1.11589 43.2943 3.00391 39.0625C4.89193 34.7656 7.5612 30.6315 11.0117 26.6602C14.2669 22.8841 18.1406 19.3685 22.6328 16.1133C27.1901 12.793 32.1055 9.92839 37.3789 7.51953C48.4466 2.50651 59.4492 0 70.3867 0C85.8164 0 97.7956 4.00391 106.324 12.0117C110.1 15.5924 112.9 19.7266 114.723 24.4141C116.611 29.1016 117.555 34.082 117.555 39.3555C117.555 45.8008 116.22 52.2135 113.551 58.5938C110.947 64.974 107.171 70.6706 102.223 75.6836C97.0143 81.0221 90.7969 85.2539 83.5703 88.3789C76.4089 91.4388 68.4987 92.9688 59.8398 92.9688H58.7656L46.5586 150H17.8477L44.9961 22.7539ZM146.848 150.781C136.952 150.781 129.302 148.372 123.898 143.555C117.844 138.216 114.816 130.111 114.816 119.238C114.816 115.137 115.24 110.612 116.086 105.664C116.932 100.651 118.234 95.6055 119.992 90.5273C124.029 78.418 129.79 68.75 137.277 61.5234C146.327 52.6693 157.102 48.2422 169.602 48.2422C186.724 48.2422 195.285 58.8867 195.285 80.1758V80.3711C195.676 80.5013 196.001 80.5664 196.262 80.5664H197.434C201.861 80.5664 207.102 79.3294 213.156 76.8555C218.495 74.6419 223.54 71.875 228.293 68.5547L230.051 74.0234C226.145 78.125 221.099 81.6081 214.914 84.4727C208.794 87.3372 202.023 89.388 194.602 90.625C193.82 99.6745 192.062 107.943 189.328 115.43C186.594 122.852 183.078 129.232 178.781 134.57C174.549 139.779 169.699 143.783 164.23 146.582C158.762 149.382 152.967 150.781 146.848 150.781ZM154.855 132.812C157.199 132.812 159.576 131.771 161.984 129.688C164.458 127.539 166.77 124.577 168.918 120.801C171.066 117.025 172.922 112.598 174.484 107.52C176.047 102.441 177.219 97.0052 178 91.2109C176.047 90.6901 174.647 89.7135 173.801 88.2812C173.02 86.849 172.629 85.026 172.629 82.8125C172.629 80.0781 173.182 77.7995 174.289 75.9766C175.396 74.1536 176.926 72.819 178.879 71.9727C178.618 67.7409 177.935 64.7135 176.828 62.8906C176.242 61.9792 175.493 61.3281 174.582 60.9375C173.736 60.5469 172.629 60.3516 171.262 60.3516C166.77 60.3516 162.375 63.737 158.078 70.5078C154.107 76.6276 150.852 84.1797 148.312 93.1641C145.839 101.953 144.602 109.766 144.602 116.602C144.602 119.922 144.764 122.624 145.09 124.707C145.48 126.79 146.099 128.418 146.945 129.59C147.727 130.762 148.736 131.608 149.973 132.129C151.21 132.585 152.837 132.812 154.855 132.812ZM232.293 151.172C227.475 151.172 223.211 150.456 219.5 149.023C215.789 147.526 212.664 145.475 210.125 142.871C207.781 140.462 206.023 137.793 204.852 134.863C203.68 131.868 203.094 128.776 203.094 125.586C203.094 121.224 204.201 117.285 206.414 113.77C208.367 110.645 210.809 108.398 213.738 107.031C218.947 97.7865 223.471 88.4115 227.312 78.9062C231.154 69.401 234.832 59.0169 238.348 47.7539L267.938 43.8477C268.719 60.7747 269.435 73.763 270.086 82.8125C270.737 92.1224 271.29 98.9583 271.746 103.32C272.137 108.398 272.332 112.826 272.332 116.602C272.332 119.987 272.072 122.526 271.551 124.219C277.54 120.703 282.326 117.35 285.906 114.16H294.305C289.552 119.694 284.637 124.447 279.559 128.418C274.546 132.389 269.272 135.97 263.738 139.16C259.767 143.327 254.786 146.419 248.797 148.438C243.589 150.26 238.087 151.172 232.293 151.172ZM225.945 135.352C230.958 135.352 234.962 133.984 237.957 131.25C241.538 127.995 243.328 123.177 243.328 116.797C243.328 114.128 243.165 110.775 242.84 106.738L242.352 100.781C241.766 95.638 241.18 89.681 240.594 82.9102L239.52 69.4336C237.632 75.4883 235.385 81.5104 232.781 87.5C230.177 93.4245 227.02 100 223.309 107.227C226.368 108.919 227.898 111.23 227.898 114.16C227.898 116.764 227.117 119.01 225.555 120.898C223.862 122.982 221.714 124.023 219.109 124.023C217.807 124.023 216.701 123.861 215.789 123.535C214.943 123.145 214.259 122.428 213.738 121.387C213.738 126.204 214.682 129.753 216.57 132.031C218.458 134.245 221.583 135.352 225.945 135.352ZM309.73 151.172C303.35 151.172 298.305 149.284 294.594 145.508C290.427 141.341 288.344 135.254 288.344 127.246C288.344 123.47 288.865 119.108 289.906 114.16L301.918 58.0078H295.277L296.938 50H303.48L309.535 22.3633L339.125 18.3594L332.289 50H344.301L342.738 58.0078H330.727L317.934 117.969C317.413 119.661 317.152 121.81 317.152 124.414C317.152 127.148 317.771 129.069 319.008 130.176C320.31 131.283 322.393 131.836 325.258 131.836C327.211 131.836 329.099 131.413 330.922 130.566C332.81 129.655 334.535 128.418 336.098 126.855C339.288 123.665 341.697 119.434 343.324 114.16H351.723C348.142 124.251 343.65 132.292 338.246 138.281C333.689 143.164 328.546 146.68 322.816 148.828C318.65 150.391 314.288 151.172 309.73 151.172ZM371.445 151.172C363.828 151.172 357.676 148.796 352.988 144.043C347.52 138.444 344.785 130.111 344.785 119.043C344.785 114.355 345.273 109.408 346.25 104.199C347.161 98.9909 348.529 93.8477 350.352 88.7695C354.518 77.3112 360.215 68.0664 367.441 61.0352C375.775 53.0273 385.378 49.0234 396.25 49.0234C401.654 49.0234 405.69 49.9674 408.359 51.8555C411.094 53.6784 412.461 56.1198 412.461 59.1797V60.6445L414.609 50H443.418L429.062 117.969C428.477 119.922 428.184 122.07 428.184 124.414C428.184 130.143 430.918 133.008 436.387 133.008C440.033 133.008 443.353 131.152 446.348 127.441C448.887 124.316 450.97 119.889 452.598 114.16H460.996C457.415 124.316 453.086 132.357 448.008 138.281C443.711 143.164 438.861 146.68 433.457 148.828C429.486 150.391 425.286 151.172 420.859 151.172C415.195 151.172 410.671 149.642 407.285 146.582C403.965 143.457 401.947 138.867 401.23 132.812C397.454 138.151 393.483 142.318 389.316 145.312C383.978 149.219 378.021 151.172 371.445 151.172ZM384.434 131.836C385.931 131.836 387.493 131.445 389.121 130.664C390.814 129.883 392.441 128.776 394.004 127.344C397.52 123.958 399.863 119.564 401.035 114.16L410.605 69.043C410.605 68.3919 410.443 67.6432 410.117 66.7969C409.857 65.8854 409.466 65.0391 408.945 64.2578C407.383 62.3698 405.202 61.4258 402.402 61.4258C399.733 61.4258 397.129 62.3047 394.59 64.0625C392.116 65.8203 389.772 68.2617 387.559 71.3867C383.652 77.0508 380.43 84.4401 377.891 93.5547C376.719 97.5911 375.84 101.595 375.254 105.566C374.668 109.473 374.375 113.021 374.375 116.211C374.375 122.852 375.612 127.344 378.086 129.688C378.932 130.599 379.876 131.185 380.918 131.445C381.96 131.706 383.132 131.836 384.434 131.836ZM492.047 200C488.922 200 485.992 199.577 483.258 198.73C480.589 197.949 478.277 196.745 476.324 195.117C474.241 193.49 472.613 191.439 471.441 188.965C470.27 186.556 469.684 183.757 469.684 180.566C469.684 173.014 473.232 166.536 480.328 161.133C485.667 157.161 492.991 153.711 502.301 150.781L504.742 140.234C497.906 147.526 489.898 151.172 480.719 151.172C473.102 151.172 466.949 148.796 462.262 144.043C456.793 138.444 454.059 130.111 454.059 119.043C454.059 114.355 454.547 109.408 455.523 104.199C456.435 98.9909 457.802 93.8477 459.625 88.7695C463.792 77.3112 469.488 68.0664 476.715 61.0352C485.048 53.0273 494.651 49.0234 505.523 49.0234C510.927 49.0234 514.964 49.9674 517.633 51.8555C520.367 53.6784 521.734 56.1198 521.734 59.1797V60.3516L523.883 50H552.691L532.867 142.773C539.182 140.69 544.228 137.565 548.004 133.398C552.105 128.906 555.458 122.493 558.062 114.16H566.461C562.88 126.009 557.542 135.156 550.445 141.602C545.237 146.289 538.792 149.609 531.109 151.562L528.082 166.016C525.543 178.776 520.465 188.021 512.848 193.75C507.314 197.917 500.38 200 492.047 200ZM493.707 131.836C496.572 131.836 499.599 130.501 502.789 127.832C506.24 124.837 508.551 120.964 509.723 116.211L519.879 68.8477C519.879 68.1966 519.716 67.4479 519.391 66.6016C519.13 65.7552 518.74 64.974 518.219 64.2578C516.656 62.3698 514.475 61.4258 511.676 61.4258C509.007 61.4258 506.402 62.3047 503.863 64.0625C501.389 65.8203 499.046 68.2617 496.832 71.3867C492.926 77.0508 489.703 84.4401 487.164 93.5547C485.992 97.5911 485.113 101.595 484.527 105.566C483.941 109.473 483.648 113.021 483.648 116.211C483.648 122.852 484.885 127.344 487.359 129.688C488.206 130.599 489.15 131.185 490.191 131.445C491.233 131.706 492.405 131.836 493.707 131.836ZM487.457 184.375C489.54 184.375 491.689 182.91 493.902 179.98C496.116 177.116 497.841 172.656 499.078 166.602L500.25 160.84C494.195 163.118 489.671 165.43 486.676 167.773C482.704 170.768 480.719 174.121 480.719 177.832C480.719 179.59 481.272 181.055 482.379 182.227C483.616 183.659 485.309 184.375 487.457 184.375ZM575.637 50H604.445L601.906 62.4023C606.464 58.3659 610.174 55.5013 613.039 53.8086C617.466 51.2695 621.796 50 626.027 50C630.324 50 633.775 51.5299 636.379 54.5898C637.551 55.957 638.43 57.5521 639.016 59.375C639.602 61.1328 639.895 63.0208 639.895 65.0391C639.895 66.862 639.602 68.6198 639.016 70.3125C638.43 72.0052 637.551 73.5352 636.379 74.9023C635.077 76.3346 633.482 77.474 631.594 78.3203C629.771 79.1667 627.72 79.5898 625.441 79.5898C623.684 79.5898 622.284 79.2969 621.242 78.7109C620.201 78.125 619.387 77.2786 618.801 76.1719C618.28 75.0651 617.922 73.9909 617.727 72.9492C617.141 70.1497 616.555 68.2943 615.969 67.3828C615.513 66.7318 614.797 66.4062 613.82 66.4062C611.021 66.4062 608.645 66.9922 606.691 68.1641C604.738 69.3359 602.264 71.2891 599.27 74.0234L583.254 150H554.445L575.637 50ZM665.281 151.172C657.664 151.172 651.512 148.796 646.824 144.043C641.355 138.444 638.621 130.111 638.621 119.043C638.621 114.355 639.109 109.408 640.086 104.199C640.997 98.9909 642.365 93.8477 644.188 88.7695C648.354 77.3112 654.051 68.0664 661.277 61.0352C669.611 53.0273 679.214 49.0234 690.086 49.0234C695.49 49.0234 699.526 49.9674 702.195 51.8555C704.93 53.6784 706.297 56.1198 706.297 59.1797V60.6445L708.445 50H737.254L722.898 117.969C722.312 119.922 722.02 122.07 722.02 124.414C722.02 130.143 724.754 133.008 730.223 133.008C733.868 133.008 737.189 131.152 740.184 127.441C742.723 124.316 744.806 119.889 746.434 114.16H754.832C751.251 124.316 746.922 132.357 741.844 138.281C737.547 143.164 732.697 146.68 727.293 148.828C723.322 150.391 719.122 151.172 714.695 151.172C709.031 151.172 704.507 149.642 701.121 146.582C697.801 143.457 695.783 138.867 695.066 132.812C691.29 138.151 687.319 142.318 683.152 145.312C677.814 149.219 671.857 151.172 665.281 151.172ZM678.27 131.836C679.767 131.836 681.329 131.445 682.957 130.664C684.65 129.883 686.277 128.776 687.84 127.344C691.355 123.958 693.699 119.564 694.871 114.16L704.441 69.043C704.441 68.3919 704.279 67.6432 703.953 66.7969C703.693 65.8854 703.302 65.0391 702.781 64.2578C701.219 62.3698 699.038 61.4258 696.238 61.4258C693.569 61.4258 690.965 62.3047 688.426 64.0625C685.952 65.8203 683.608 68.2617 681.395 71.3867C677.488 77.0508 674.266 84.4401 671.727 93.5547C670.555 97.5911 669.676 101.595 669.09 105.566C668.504 109.473 668.211 113.021 668.211 116.211C668.211 122.852 669.448 127.344 671.922 129.688C672.768 130.599 673.712 131.185 674.754 131.445C675.796 131.706 676.967 131.836 678.27 131.836ZM872.113 151.172C863.845 151.172 857.725 148.828 853.754 144.141C850.303 140.104 848.578 134.928 848.578 128.613C848.578 125.618 848.936 122.135 849.652 118.164C850.434 114.193 851.573 109.082 853.07 102.832C854.568 96.4518 855.674 91.3737 856.391 87.5977C857.172 83.7565 857.562 80.4362 857.562 77.6367C857.562 70.8008 855.154 67.3828 850.336 67.3828C846.951 67.3828 843.826 69.1732 840.961 72.7539C838.552 75.8138 836.469 80.1758 834.711 85.8398L821.137 150H792.328L806.977 80.957C807.367 79.3945 807.562 77.7344 807.562 75.9766C807.562 73.3073 807.139 71.2565 806.293 69.8242C805.186 68.0664 803.591 67.1875 801.508 67.1875C797.732 67.1875 794.444 69.0104 791.645 72.6562C789.171 75.7812 787.055 80.1758 785.297 85.8398L771.723 150H742.914L764.105 50H792.914L790.766 60.3516C794.672 55.9896 798.936 52.8971 803.559 51.0742C807.204 49.707 811.078 49.0234 815.18 49.0234C820.779 49.0234 825.238 50.3255 828.559 52.9297C832.27 55.8594 834.646 60.2865 835.688 66.2109C839.984 59.5703 844.932 54.8828 850.531 52.1484C854.503 50.1953 858.832 49.2188 863.52 49.2188C870.225 49.2188 875.531 50.9766 879.438 54.4922C883.604 58.3333 885.688 64.0951 885.688 71.7773C885.688 76.1393 884.874 82.1615 883.246 89.8438C882.595 93.0339 881.814 96.2565 880.902 99.5117C879.275 105.762 877.94 111.523 876.898 116.797C876.378 119.531 876.117 121.745 876.117 123.438C876.117 126.107 876.703 128.19 877.875 129.688C879.112 131.12 881.195 131.836 884.125 131.836C888.096 131.836 891.449 130.208 894.184 126.953C896.267 124.479 898.513 120.215 900.922 114.16H909.32C904.372 128.809 898.122 139.062 890.57 144.922C885.232 149.089 879.079 151.172 872.113 151.172Z" fill="white"/>
</svg>
